<svg xmlns="http://www.w3.org/2000/svg">
  <symbol id="twitter" viewbox="0 0 24 24">
    <path d="M21.5 6.1c-.5.8-1.2 1.5-2 2v.5c0 1-.2 2.1-.5 3.1s-.8 2-1.4 3c-.6 1-1.4 1.8-2.2 2.5-.9.7-1.9 1.3-3.1 1.8-1.2.4-2.5.7-3.9.7-2.2 0-4.2-.6-6-1.7h.9c1.8 0 3.4-.6 4.8-1.7-.8 0-1.6-.3-2.3-.8-.7-.5-1.1-1.1-1.4-1.9.3 0 .5.1.7.1.3 0 .7 0 1-.1-.9-.2-1.6-.6-2.2-1.3S3 10.8 3 9.8c.8.2 1.4.4 2 .4-.5-.4-1-.8-1.3-1.4-.2-.5-.4-1.2-.4-1.8 0-.7.2-1.4.5-2 1 1.2 2.2 2.2 3.5 2.9 1.4.7 2.9 1.1 4.5 1.2-.1-.3-.1-.6-.1-.9 0-1.1.4-2 1.1-2.8s1.7-1.1 2.8-1.1c1.1 0 2.1.4 2.8 1.2 1-.1 1.8-.5 2.6-.9-.3.9-.9 1.6-1.7 2.1.7-.1 1.4-.3 2.2-.6z"/>
  </symbol>
  <symbol id="email" viewbox="0 0 24 24">>
    <path d="M21.5 6.2c0 .6-.2 1.1-.5 1.6s-.8.9-1.3 1.3c-2.7 1.8-4.3 3-5 3.4-.1 0-.2.2-.4.3-.2.2-.4.3-.6.4-.2.1-.3.2-.6.3s-.4.2-.6.3c-.1.2-.3.2-.5.2s-.3 0-.5-.1l-.6-.3-.6-.3c-.2-.1-.3-.2-.6-.4-.2-.2-.4-.3-.5-.3-.6-.5-1.6-1.1-2.8-1.9-1.1-.9-1.8-1.4-2.1-1.6-.4-.3-.8-.7-1.2-1.2s-.6-1-.6-1.4c0-.6.1-1 .4-1.4.3-.4.7-.6 1.3-.6h15.6c.5 0 .9.2 1.2.5.3.4.5.8.5 1.2zm0 3.1v8.4c0 .5-.2.9-.5 1.2-.3.3-.7.5-1.2.5H4.2c-.5 0-.9-.2-1.2-.5-.3-.3-.5-.7-.5-1.2V9.3c.3.3.7.7 1.1.9 2.6 1.7 4.3 3 5.3 3.7.4.3.7.5 1 .7.3.2.6.3 1 .5s.8.3 1.2.3c.4 0 .7-.1 1.2-.3.4-.2.8-.3 1-.5.3-.2.6-.4 1-.7 1.2-.9 3-2.1 5.3-3.7.2-.2.6-.5.9-.9z"/>
  </symbol>
</svg>
